<svg width="25" height="24" viewBox="0 0 25 24" fill="none" xmlns="http://www.w3.org/2000/svg">
<path d="M19 12.65V16.35C19 19.47 16.09 22 12.5 22C8.91 22 6 19.47 6 16.35V12.65C6 15.77 8.91 18 12.5 18C16.09 18 19 15.77 19 12.65Z" stroke="#64748B" stroke-width="1.5" stroke-linecap="round" stroke-linejoin="round"/>
<path d="M19 7.65C19 8.56 18.75 9.4 18.31 10.12C17.24 11.88 15.04 13 12.5 13C9.96 13 7.76 11.88 6.69 10.12C6.25 9.4 6 8.56 6 7.65C6 6.09 6.73 4.68 7.9 3.66C9.08 2.63 10.7 2 12.5 2C14.3 2 15.92 2.63 17.1 3.65C18.27 4.68 19 6.09 19 7.65Z" stroke="#64748B" stroke-width="1.5" stroke-linecap="round" stroke-linejoin="round"/>
<path d="M19 7.65V12.65C19 15.77 16.09 18 12.5 18C8.91 18 6 15.77 6 12.65V7.65C6 4.53 8.91 2 12.5 2C14.3 2 15.92 2.63 17.1 3.65C18.27 4.68 19 6.09 19 7.65Z" stroke="#64748B" stroke-width="1.5" stroke-linecap="round" stroke-linejoin="round"/>
</svg>
