<svg width="25" height="24" viewBox="0 0 25 24" fill="none" xmlns="http://www.w3.org/2000/svg">
<path d="M9.5 22H15.5C20.5 22 22.5 20 22.5 15V9C22.5 4 20.5 2 15.5 2H9.5C4.5 2 2.5 4 2.5 9V15C2.5 20 4.5 22 9.5 22Z" stroke="#64748B" stroke-width="1.5" stroke-linecap="round" stroke-linejoin="round"/>
<path d="M3.17004 18.95L8.10004 15.64C8.89004 15.11 10.03 15.17 10.74 15.78L11.07 16.07C11.85 16.74 13.11 16.74 13.89 16.07L18.05 12.5C18.83 11.83 20.09 11.83 20.87 12.5L22.5 13.9M9.50004 10C10.0305 10 10.5392 9.78929 10.9143 9.41421C11.2893 9.03914 11.5 8.53043 11.5 8C11.5 7.46957 11.2893 6.96086 10.9143 6.58579C10.5392 6.21071 10.0305 6 9.50004 6C8.96961 6 8.4609 6.21071 8.08583 6.58579C7.71076 6.96086 7.50004 7.46957 7.50004 8C7.50004 8.53043 7.71076 9.03914 8.08583 9.41421C8.4609 9.78929 8.96961 10 9.50004 10Z" stroke="#64748B" stroke-width="1.5" stroke-linecap="round" stroke-linejoin="round"/>
</svg>
