<svg width="25" height="24" viewBox="0 0 25 24" fill="none" xmlns="http://www.w3.org/2000/svg">
<path d="M5.96005 18.49V15.57C5.96005 14.6 6.72005 13.73 7.80005 13.73C8.77005 13.73 9.64005 14.49 9.64005 15.57V18.38C9.64005 20.33 8.02005 21.95 6.07005 21.95C4.12005 21.95 2.50005 20.32 2.50005 18.38V12.22C2.39005 6.59999 6.83005 2.04999 12.45 2.04999C18.07 2.04999 22.5 6.59999 22.5 12.11V18.27C22.5 20.22 20.88 21.84 18.93 21.84C16.98 21.84 15.36 20.22 15.36 18.27V15.46C15.36 14.49 16.12 13.62 17.2 13.62C18.17 13.62 19.04 14.38 19.04 15.46V18.49" stroke="#64748B" stroke-width="1.5" stroke-linecap="round" stroke-linejoin="round"/>
</svg>
