<svg width="25" height="24" viewBox="0 0 25 24" fill="none" xmlns="http://www.w3.org/2000/svg">
<path d="M5.5 15V8M5.5 8C6.29565 8 7.05871 7.68393 7.62132 7.12132C8.18393 6.55871 8.5 5.79565 8.5 5C8.5 4.20435 8.18393 3.44129 7.62132 2.87868C7.05871 2.31607 6.29565 2 5.5 2C4.70435 2 3.94129 2.31607 3.37868 2.87868C2.81607 3.44129 2.5 4.20435 2.5 5C2.5 5.79565 2.81607 6.55871 3.37868 7.12132C3.94129 7.68393 4.70435 8 5.5 8ZM5.63 15C5.85603 14.1278 6.36593 13.3556 7.07931 12.8052C7.79269 12.2547 8.66896 11.9574 9.57 11.96L13 11.97C15.62 11.98 17.85 10.3 18.67 7.96M5.75 22C6.61195 22 7.4386 21.6576 8.0481 21.0481C8.65759 20.4386 9 19.612 9 18.75C9 17.888 8.65759 17.0614 8.0481 16.4519C7.4386 15.8424 6.61195 15.5 5.75 15.5C4.88805 15.5 4.0614 15.8424 3.4519 16.4519C2.84241 17.0614 2.5 17.888 2.5 18.75C2.5 19.612 2.84241 20.4386 3.4519 21.0481C4.0614 21.6576 4.88805 22 5.75 22ZM19.5 8C20.2956 8 21.0587 7.68393 21.6213 7.12132C22.1839 6.55871 22.5 5.79565 22.5 5C22.5 4.20435 22.1839 3.44129 21.6213 2.87868C21.0587 2.31607 20.2956 2 19.5 2C18.7044 2 17.9413 2.31607 17.3787 2.87868C16.8161 3.44129 16.5 4.20435 16.5 5C16.5 5.79565 16.8161 6.55871 17.3787 7.12132C17.9413 7.68393 18.7044 8 19.5 8Z" stroke="#64748B" stroke-width="1.5" stroke-linecap="round" stroke-linejoin="round"/>
</svg>
