<svg width="43" height="43" viewBox="0 0 43 43" fill="none" xmlns="http://www.w3.org/2000/svg">
<rect width="43" height="43" rx="21.5" fill="#2563EB"/>
<path d="M20.18 18.32C19.7657 17.7412 19.2194 17.2697 18.5863 16.9444C17.9533 16.6192 17.2517 16.4497 16.54 16.45C14.03 16.45 11.99 18.49 11.99 21C11.99 23.51 14.03 25.55 16.54 25.55C18.23 25.55 19.8 24.66 20.67 23.21L22 21L23.32 18.79C23.748 18.0768 24.3533 17.4865 25.077 17.0765C25.8007 16.6664 26.6182 16.4506 27.45 16.45C29.96 16.45 32 18.49 32 21C32 23.51 29.96 25.55 27.45 25.55C25.95 25.55 24.64 24.81 23.81 23.68" stroke="white" stroke-width="1.5" stroke-linecap="round" stroke-linejoin="round"/>
</svg>
